# xmcd
#
# Track frame offsets:
#	150
#	13970
#	26356
#	38445
#	53501
#	68532
#	81857
#	97216
#	109846
#	125454
#	137425
#	164185
#	181503
#	202862
#	209687
#	225469
#	235412
#	242181
#	268975
#	276621
#	282316
#	285381
#	288162
#	290258
#
# Disc length: 4038 seconds
#
# Revision: 1
# Processed by: cddbd v1.5.1PL2 Copyright (c) Steve Scherf et al.
# Submitted via: audiograbber 1.83.01
#
DISCID=630fc418
DTITLE=SEBASTIÃO OLIVEIRA E GAROTOS DO FORRÓ - MELÔ DA CAMISINHA - VOL. 3
DYEAR=1900
DGENRE=
TTITLE0=QUANDO O SOL RASGA O VÉU
TTITLE1=MELÔ DA CAMISINHA
TTITLE2=BABY
TTITLE3=BOMBANDO COM OS GAROTOS
TTITLE4=AINDA NÃO TE PERDOEI
TTITLE5=O AMOR DA MINHA VIDA
TTITLE6=MULHER INTERESSEIRA
TTITLE7=A PRIMA DA RAIMUNDA
TTITLE8=CARA METADE
TTITLE9=ALÔ MAMÃE
TTITLE10=FORRÓ RIMADO
TTITLE11=PIADA -  HISTÓRIA DE SEBASTIÃO OLIVEIRA
TTITLE12=PIADA - PREZEPADA DE MENINO
TTITLE13=PIADA - A IDADE DA MULHER
TTITLE14=PIADA - O PAPO E O SACO
TTITLE15=PIADA - CARACTERÍSTICAS DOS CORNOS - 1
TTITLE16=PIADA - CARACTERÍSTICAS DOS CORNOS - 2
TTITLE17=PIADA - TRANCA RUA
TTITLE18=PIADA - CÚMULOS
TTITLE19=PIADA - O QUE É SEXO
TTITLE20=PIADA - ESSA É PELA DOR, ESSA É PELA VERGONHA
TTITLE21=PIADA - PESQUISA
TTITLE22=PIADA - REVOLTA DO ANUS
TTITLE23=CHAMEGO
EXTD=
EXTT0=
EXTT1=
EXTT2=
EXTT3=
EXTT4=
EXTT5=
EXTT6=
EXTT7=
EXTT8=
EXTT9=
EXTT10=
EXTT11=
EXTT12=
EXTT13=
EXTT14=
EXTT15=
EXTT16=
EXTT17=
EXTT18=
EXTT19=
EXTT20=
EXTT21=
EXTT22=
EXTT23=
PLAYORDER=
